# xmcd
#
# Track frame offsets:
#	150
#	12558
#	22395
#	31162
#	40407
#	64161
#	76590
#	87181
#	97678
#	113466
#	129498
#	136737
#	152423
#	162412
#	174811
#	186440
#
# Disc length: 2703 seconds
#
# Revision: 0
# Processed by: cddbd v1.5.2PL0 Copyright (c) Steve Scherf et al.
# Submitted via: EasyCDDAExtractor 2010.6.0.0
#
DISCID=ba0a8d10
DTITLE=Vladimir Vysotsky - 03 Москва-Одесса (На Концертах, №3)
DYEAR=2002
DGENRE=Vocal
TTITLE0=Братские Могилы
TTITLE1=Песня О Звездах
TTITLE2=Военная Песня
TTITLE3=Она Была В Париже
TTITLE4=Татуировка
TTITLE5=Москва-Одесса
TTITLE6=Письмо На Выставку
TTITLE7=Письмо В Деревню
TTITLE8=В Далеком Созвездии Тау Кита
TTITLE9=Каждому Хочется Малость Погреться…
TTITLE10=Бал-Маскарад
TTITLE11=Солдаты Группы "Центр"
TTITLE12=Песенка Про Йогов
TTITLE13=От Скушных Шабашей…
TTITLE14=Странная Сказка
TTITLE15=Моя Цыганская
EXTD=
EXTT0=
EXTT1=
EXTT2=
EXTT3=
EXTT4=
EXTT5=
EXTT6=
EXTT7=
EXTT8=
EXTT9=
EXTT10=
EXTT11=
EXTT12=
EXTT13=
EXTT14=
EXTT15=
PLAYORDER=
